# xmcd
#
# Track frame offsets: 
#        182
#        117632
#        160582
#        207332
#        243707
#
# Disc length: 3816 seconds
#
# Revision: 15
# Processed by: cddbd v1.5.2PL0 Copyright (c) Steve Scherf et al.
# Submitted via: ExactAudioCopy v1.0b3
#
DISCID=430ee605
DTITLE=Beethoven, Ludwig van - Violinkonzert and Romanzen (Szeryng, Hait
DTITLE=ink, Concertgebouw Orch.)
DYEAR=1974
DGENRE=Violinkonzert
TTITLE0=Violinkonzert D-dur op. 61 - 1. Allegro ma non troppo 
TTITLE1=Violinkonzert D-dur op. 61 - 2. Larghetto 
TTITLE2=Violinkonzert D-dur op. 61 - 3. Rondo. Allegro
TTITLE3=Romanze für Violine und Orch. Nr. 1 G-dur op. 40
TTITLE4=Romanze für Violine und Orch. Nr. 2 D-dur op. 50
EXTD=
EXTT0=
EXTT1=
EXTT2=
EXTT3=
EXTT4=
PLAYORDER=
